<svg xmlns="http://www.w3.org/2000/svg" xmlns:xlink="http://www.w3.org/1999/xlink" width="500" zoomAndPan="magnify" viewBox="0 0 375 374.999991" height="500" preserveAspectRatio="xMidYMid meet" version="1.0"><defs><clipPath id="789869840c"><path d="M 37.5 37.5 L 337.5 37.5 L 337.5 337.5 L 37.5 337.5 Z M 37.5 37.5 " clip-rule="nonzero"/></clipPath><clipPath id="a77b6b200c"><path d="M 54.75 37.5 L 320.25 37.5 C 324.824219 37.5 329.210938 39.316406 332.449219 42.550781 C 335.683594 45.789062 337.5 50.175781 337.5 54.75 L 337.5 320.25 C 337.5 324.824219 335.683594 329.210938 332.449219 332.449219 C 329.210938 335.683594 324.824219 337.5 320.25 337.5 L 54.75 337.5 C 50.175781 337.5 45.789062 335.683594 42.550781 332.449219 C 39.316406 329.210938 37.5 324.824219 37.5 320.25 L 37.5 54.75 C 37.5 50.175781 39.316406 45.789062 42.550781 42.550781 C 45.789062 39.316406 50.175781 37.5 54.75 37.5 Z M 54.75 37.5 " clip-rule="nonzero"/></clipPath><clipPath id="7520cfeab4"><path d="M 69 68.007812 L 306 68.007812 L 306 307 L 69 307 Z M 69 68.007812 " clip-rule="nonzero"/></clipPath></defs><g clip-path="url(#789869840c)"><g clip-path="url(#a77b6b200c)"><path fill="#99e265" d="M 37.5 37.5 L 337.5 37.5 L 337.5 337.5 L 37.5 337.5 Z M 37.5 37.5 " fill-opacity="1" fill-rule="nonzero"/></g></g><g clip-path="url(#7520cfeab4)"><path fill="#ffffff" d="M 305.972656 186.484375 C 305.972656 164.914062 300.175781 144.707031 290.105469 127.289062 L 294.667969 71.640625 L 251.570312 86.851562 C 233.097656 74.949219 211.109375 68.007812 187.5 68.007812 C 163.886719 68.007812 141.902344 74.949219 123.425781 86.851562 L 80.328125 71.640625 L 84.890625 127.289062 C 74.820312 144.707031 69.023438 164.914062 69.023438 186.484375 C 69.023438 251.914062 122.066406 304.957031 187.5 304.957031 C 207.871094 304.957031 227.039062 299.808594 243.777344 290.761719 L 292.457031 306.988281 L 276.089844 265.121094 C 294.667969 244.195312 305.972656 216.664062 305.972656 186.484375 Z M 187.5 248.140625 C 187.5 248.140625 100.914062 222.101562 98.789062 174.570312 C 97.582031 147.351562 113.019531 126.738281 141.484375 126.738281 C 169.945312 126.738281 187.5 145.820312 187.5 145.820312 C 187.5 145.820312 205.0625 126.75 233.515625 126.75 C 261.976562 126.75 277.414062 147.363281 276.195312 174.582031 C 274.082031 222.101562 187.5 248.140625 187.5 248.140625 Z M 187.5 248.140625 " fill-opacity="1" fill-rule="nonzero"/></g><path fill="#ffffff" d="M 167.207031 172.15625 C 167.207031 172.839844 167.175781 173.523438 167.109375 174.203125 C 167.042969 174.882812 166.941406 175.558594 166.808594 176.230469 C 166.675781 176.902344 166.507812 177.5625 166.308594 178.21875 C 166.109375 178.875 165.878906 179.515625 165.617188 180.148438 C 165.355469 180.78125 165.066406 181.398438 164.742188 182 C 164.421875 182.605469 164.070312 183.191406 163.6875 183.761719 C 163.308594 184.328125 162.902344 184.878906 162.46875 185.40625 C 162.035156 185.933594 161.574219 186.441406 161.089844 186.925781 C 160.609375 187.410156 160.101562 187.867188 159.574219 188.300781 C 159.042969 188.734375 158.496094 189.144531 157.925781 189.523438 C 157.355469 189.902344 156.769531 190.253906 156.167969 190.578125 C 155.566406 190.898438 154.945312 191.191406 154.316406 191.453125 C 153.683594 191.714844 153.039062 191.945312 152.386719 192.144531 C 151.730469 192.34375 151.066406 192.507812 150.398438 192.640625 C 149.726562 192.773438 149.050781 192.875 148.371094 192.941406 C 147.6875 193.007812 147.007812 193.042969 146.320312 193.042969 C 145.636719 193.042969 144.957031 193.007812 144.273438 192.941406 C 143.59375 192.875 142.917969 192.773438 142.246094 192.640625 C 141.578125 192.507812 140.914062 192.34375 140.257812 192.144531 C 139.605469 191.945312 138.960938 191.714844 138.328125 191.453125 C 137.695312 191.191406 137.078125 190.898438 136.476562 190.578125 C 135.871094 190.253906 135.285156 189.902344 134.71875 189.523438 C 134.148438 189.144531 133.601562 188.734375 133.070312 188.300781 C 132.542969 187.867188 132.035156 187.410156 131.554688 186.925781 C 131.070312 186.441406 130.609375 185.933594 130.175781 185.40625 C 129.742188 184.878906 129.335938 184.328125 128.957031 183.761719 C 128.574219 183.191406 128.222656 182.605469 127.902344 182 C 127.578125 181.398438 127.285156 180.78125 127.023438 180.148438 C 126.761719 179.515625 126.53125 178.875 126.335938 178.21875 C 126.136719 177.5625 125.96875 176.902344 125.835938 176.230469 C 125.703125 175.558594 125.601562 174.882812 125.535156 174.203125 C 125.46875 173.523438 125.433594 172.839844 125.433594 172.15625 C 125.433594 171.472656 125.46875 170.789062 125.535156 170.109375 C 125.601562 169.429688 125.703125 168.75 125.835938 168.082031 C 125.96875 167.410156 126.136719 166.746094 126.335938 166.09375 C 126.53125 165.4375 126.761719 164.792969 127.023438 164.164062 C 127.285156 163.53125 127.578125 162.914062 127.902344 162.308594 C 128.222656 161.707031 128.574219 161.121094 128.957031 160.550781 C 129.335938 159.984375 129.742188 159.433594 130.175781 158.90625 C 130.609375 158.375 131.070312 157.871094 131.554688 157.386719 C 132.035156 156.902344 132.542969 156.445312 133.070312 156.011719 C 133.601562 155.574219 134.148438 155.167969 134.71875 154.789062 C 135.285156 154.410156 135.871094 154.058594 136.476562 153.734375 C 137.078125 153.414062 137.695312 153.121094 138.328125 152.859375 C 138.960938 152.597656 139.605469 152.367188 140.257812 152.167969 C 140.914062 151.96875 141.578125 151.804688 142.246094 151.671875 C 142.917969 151.535156 143.59375 151.4375 144.273438 151.371094 C 144.957031 151.300781 145.636719 151.269531 146.320312 151.269531 C 147.007812 151.269531 147.6875 151.300781 148.371094 151.371094 C 149.050781 151.4375 149.726562 151.535156 150.398438 151.671875 C 151.066406 151.804688 151.730469 151.96875 152.386719 152.167969 C 153.039062 152.367188 153.683594 152.597656 154.316406 152.859375 C 154.945312 153.121094 155.566406 153.414062 156.167969 153.734375 C 156.769531 154.058594 157.355469 154.410156 157.925781 154.789062 C 158.496094 155.167969 159.042969 155.574219 159.574219 156.011719 C 160.101562 156.445312 160.609375 156.902344 161.089844 157.386719 C 161.574219 157.871094 162.035156 158.375 162.46875 158.90625 C 162.902344 159.433594 163.308594 159.984375 163.6875 160.550781 C 164.070312 161.121094 164.421875 161.707031 164.742188 162.308594 C 165.066406 162.914062 165.355469 163.53125 165.617188 164.164062 C 165.878906 164.792969 166.109375 165.4375 166.308594 166.09375 C 166.507812 166.746094 166.675781 167.410156 166.808594 168.082031 C 166.941406 168.75 167.042969 169.429688 167.109375 170.109375 C 167.175781 170.789062 167.207031 171.472656 167.207031 172.15625 Z M 167.207031 172.15625 " fill-opacity="1" fill-rule="nonzero"/><path fill="#ffffff" d="M 249.5625 172.15625 C 249.5625 172.839844 249.527344 173.523438 249.460938 174.203125 C 249.394531 174.882812 249.292969 175.558594 249.160156 176.230469 C 249.027344 176.902344 248.859375 177.5625 248.664062 178.21875 C 248.464844 178.875 248.234375 179.515625 247.972656 180.148438 C 247.710938 180.78125 247.417969 181.398438 247.09375 182 C 246.773438 182.605469 246.421875 183.191406 246.042969 183.761719 C 245.660156 184.328125 245.253906 184.878906 244.820312 185.40625 C 244.386719 185.933594 243.925781 186.441406 243.445312 186.925781 C 242.960938 187.410156 242.453125 187.867188 241.925781 188.300781 C 241.394531 188.734375 240.847656 189.144531 240.277344 189.523438 C 239.710938 189.902344 239.125 190.253906 238.519531 190.578125 C 237.917969 190.898438 237.300781 191.191406 236.667969 191.453125 C 236.035156 191.714844 235.390625 191.945312 234.738281 192.144531 C 234.082031 192.34375 233.421875 192.507812 232.75 192.640625 C 232.078125 192.773438 231.402344 192.875 230.722656 192.941406 C 230.042969 193.007812 229.359375 193.042969 228.675781 193.042969 C 227.992188 193.042969 227.308594 193.007812 226.628906 192.941406 C 225.945312 192.875 225.269531 192.773438 224.601562 192.640625 C 223.929688 192.507812 223.265625 192.34375 222.613281 192.144531 C 221.957031 191.945312 221.3125 191.714844 220.679688 191.453125 C 220.050781 191.191406 219.433594 190.898438 218.828125 190.578125 C 218.226562 190.253906 217.640625 189.902344 217.070312 189.523438 C 216.5 189.144531 215.953125 188.734375 215.425781 188.300781 C 214.894531 187.867188 214.390625 187.410156 213.90625 186.925781 C 213.421875 186.441406 212.960938 185.933594 212.527344 185.40625 C 212.09375 184.878906 211.6875 184.328125 211.308594 183.761719 C 210.929688 183.191406 210.578125 182.605469 210.253906 182 C 209.929688 181.398438 209.640625 180.78125 209.378906 180.148438 C 209.117188 179.515625 208.886719 178.875 208.6875 178.21875 C 208.488281 177.5625 208.324219 176.902344 208.1875 176.230469 C 208.054688 175.558594 207.957031 174.882812 207.886719 174.203125 C 207.820312 173.523438 207.789062 172.839844 207.789062 172.15625 C 207.789062 171.472656 207.820312 170.789062 207.886719 170.109375 C 207.957031 169.429688 208.054688 168.75 208.1875 168.082031 C 208.324219 167.410156 208.488281 166.746094 208.6875 166.09375 C 208.886719 165.4375 209.117188 164.792969 209.378906 164.164062 C 209.640625 163.53125 209.929688 162.914062 210.253906 162.308594 C 210.578125 161.707031 210.929688 161.121094 211.308594 160.550781 C 211.6875 159.984375 212.09375 159.433594 212.527344 158.90625 C 212.964844 158.375 213.421875 157.871094 213.90625 157.386719 C 214.390625 156.902344 214.894531 156.445312 215.425781 156.011719 C 215.953125 155.574219 216.5 155.167969 217.070312 154.789062 C 217.640625 154.410156 218.226562 154.058594 218.828125 153.734375 C 219.433594 153.414062 220.050781 153.121094 220.679688 152.859375 C 221.3125 152.597656 221.957031 152.367188 222.613281 152.167969 C 223.265625 151.96875 223.929688 151.804688 224.601562 151.671875 C 225.269531 151.535156 225.945312 151.4375 226.628906 151.371094 C 227.308594 151.300781 227.992188 151.269531 228.675781 151.269531 C 229.359375 151.269531 230.042969 151.300781 230.722656 151.371094 C 231.402344 151.4375 232.078125 151.535156 232.75 151.671875 C 233.421875 151.804688 234.082031 151.96875 234.738281 152.167969 C 235.390625 152.367188 236.035156 152.597656 236.667969 152.859375 C 237.300781 153.121094 237.917969 153.414062 238.519531 153.734375 C 239.125 154.058594 239.710938 154.410156 240.277344 154.789062 C 240.847656 155.167969 241.394531 155.574219 241.925781 156.011719 C 242.453125 156.445312 242.960938 156.902344 243.445312 157.386719 C 243.925781 157.871094 244.386719 158.375 244.820312 158.90625 C 245.253906 159.433594 245.660156 159.984375 246.042969 160.550781 C 246.421875 161.121094 246.773438 161.707031 247.09375 162.308594 C 247.417969 162.914062 247.710938 163.53125 247.972656 164.164062 C 248.234375 164.792969 248.464844 165.4375 248.664062 166.09375 C 248.859375 166.746094 249.027344 167.410156 249.160156 168.082031 C 249.292969 168.75 249.394531 169.429688 249.460938 170.109375 C 249.527344 170.789062 249.5625 171.472656 249.5625 172.15625 Z M 249.5625 172.15625 " fill-opacity="1" fill-rule="nonzero"/><path fill="#ffffff" d="M 187.5 186.984375 C 194.835938 186.984375 198.242188 193.042969 198.242188 200.308594 C 198.242188 212.339844 187.5 223.011719 187.5 223.011719 C 187.5 223.011719 176.757812 212.339844 176.757812 200.308594 C 176.757812 193.042969 180.160156 186.984375 187.5 186.984375 Z M 187.5 186.984375 " fill-opacity="1" fill-rule="nonzero"/></svg>